<svg xmlns="http://www.w3.org/2000/svg" viewBox="0 0 533.5 544.3" width="48" height="48">
  <path fill="#4285F4" d="M533.5 278.4c0-17.4-1.6-34.1-4.7-50.4H272v95.5h147.1c-6.4 34.6-25.9 63.9-55.1 83.5v69.3h88.9c52.1-48 81-118.6 81-197.9z"/>
  <path fill="#34A853" d="M272 544.3c73.6 0 135.4-24.3 180.6-66.3l-88.9-69.3c-24.8 16.7-56.5 26.6-91.7 26.6-70.6 0-130.5-47.6-152-111.4H28.3v69.8C73.2 483 166.8 544.3 272 544.3z"/>
  <path fill="#FBBC05" d="M120 322.2c-11.9-35.2-11.9-73.1 0-108.3V144.1H28.3C10.1 183.3 0 224.9 0 268.9s10.1 85.6 28.3 124.8L120 322.2z"/>
  <path fill="#EA4335" d="M272 107.7c39.8 0 75.6 13.7 103.8 40.5l77.9-77.9C404.6 24.9 345.8 0 272 0 166.8 0 73.2 61.3 28.3 144.1l91.7 69.8C141.5 155.3 201.4 107.7 272 107.7z"/>
</svg>
